<svg xmlns="http://www.w3.org/2000/svg" width="1134" height="1127" viewBox="0 0 1134 1127">
  <defs>
    <style>
      .cls-1 {
        fill: #9da1a3;
      }

      .cls-1, .cls-12, .cls-14, .cls-15, .cls-17, .cls-18, .cls-2, .cls-20, .cls-23, .cls-24 {
        fill-rule: evenodd;
      }

      .cls-2 {
        fill: #ccd260;
      }

      .cls-3 {
        fill: #9ab441;
      }

      .cls-4 {
        fill: #18a396;
      }

      .cls-5 {
        fill: #31794f;
      }

      .cls-6 {
        fill: #e34230;
      }

      .cls-7 {
        fill: #ec0191;
      }

      .cls-8 {
        fill: #9db46e;
      }

      .cls-9 {
        fill: #1c6448;
      }

      .cls-10 {
        fill: #9b1e34;
      }

      .cls-11 {
        fill: #8a5e38;
      }

      .cls-12 {
        fill: #726658;
      }

      .cls-13 {
        fill: #57381b;
      }

      .cls-14 {
        fill: #b69c86;
      }

      .cls-15 {
        fill: #18b7d0;
      }

      .cls-16 {
        fill: #0f77b5;
      }

      .cls-17 {
        fill: #292362;
      }

      .cls-18 {
        fill: #de2161;
      }

      .cls-19 {
        fill: #84429a;
      }

      .cls-20 {
        fill: #5f3b7a;
      }

      .cls-21 {
        fill: #145e60;
      }

      .cls-22, .cls-23 {
        fill: #ff0;
      }

      .cls-24 {
        fill: #f59525;
      }
    </style>
  </defs>
  <path id="Forma_26" data-name="Forma 26" class="cls-1" d="M626.062,457.788l9.876-1.576,15,94-9.876,1.576Z"/>
  <path id="Forma_1" data-name="Forma 1" class="cls-1" d="M128.1,422.991l9.794,2.018-27,131-9.794-2.018Z"/>
  <path id="Forma_2" data-name="Forma 2" class="cls-1" d="M97.074,649.855l9.852-1.71,34,196-9.852,1.71Z"/>
  <path id="Forma_3" data-name="Forma 3" class="cls-1" d="M184.444,753.939l9.112,4.122-38,84-9.112-4.122Z"/>
  <path id="Forma_4" data-name="Forma 4" class="cls-1" d="M199.145,758.2l9.71-2.394,35,142-9.71,2.394Z"/>
  <path id="Forma_5" data-name="Forma 5" class="cls-1" d="M288.464,607.536l7.072-7.072,73,73-7.072,7.072Z"/>
  <path id="Forma_6" data-name="Forma 6" class="cls-1" d="M260.3,939.7l3.408-9.4,80,29-3.408,9.4Z"/>
  <path id="Forma_7" data-name="Forma 7" class="cls-1" d="M456.238,977.994l-0.476-9.988,84-4,0.476,9.988Z"/>
  <path id="Forma_8" data-name="Forma 8" class="cls-1" d="M420.73,662.619l-9.46-3.238,38-111,9.46,3.238Z"/>
  <path id="Forma_9" data-name="Forma 9" class="cls-1" d="M287.8,446.414l-9.592-2.828,23-78,9.592,2.828Z"/>
  <path id="Forma_10" data-name="Forma 10" class="cls-1" d="M174.536,348.536l-7.072-7.072,42-42,7.072,7.072Z"/>
  <path id="Forma_11" data-name="Forma 11" class="cls-1" d="M393.612,119.458l-7.224-6.916,45-47,7.224,6.916Z"/>
  <path id="Forma_12" data-name="Forma 12" class="cls-1" d="M472.868,76.9l6.264-7.795,56,45-6.264,7.8Z"/>
  <path id="Forma_13" data-name="Forma 13" class="cls-1" d="M598.753,130.174l-5.506-8.348,47-31,5.506,8.348Z"/>
  <path id="Forma_14" data-name="Forma 14" class="cls-1" d="M702.746,106.8l6.508-7.592,63,54-6.508,7.592Z"/>
  <path id="Forma_15" data-name="Forma 15" class="cls-1" d="M756.087,201.887l7.826,6.226-70,88-7.826-6.226Z"/>
  <path id="Forma_16" data-name="Forma 16" class="cls-1" d="M552.5,412.434l7.01,7.132-59,58-7.01-7.132Z"/>
  <path id="Forma_17" data-name="Forma 17" class="cls-1" d="M625.106,459.022l9.788-2.044,19,91-9.788,2.044Z"/>
  <path id="Forma_18" data-name="Forma 18" class="cls-1" d="M760.539,917.757l-3.078-9.514,68-22,3.078,9.514Z"/>
  <path id="Forma_19" data-name="Forma 19" class="cls-1" d="M876.66,888.988l0.68-9.976,44,3-0.68,9.976Z"/>
  <path id="Forma_20" data-name="Forma 20" class="cls-1" d="M943.994,865.75l-9.988.5-2-40,9.988-.5Z"/>
  <path id="Forma_21" data-name="Forma 21" class="cls-1" d="M968.8,667.406l-9.6-2.812,34-116,9.6,2.812Z"/>
  <path id="Forma_22" data-name="Forma 22" class="cls-1" d="M896.432,658.685l-8.864,4.63-35-67,8.864-4.63Z"/>
  <path id="Forma_23" data-name="Forma 23" class="cls-1" d="M748.481,614.341l-4.962-8.682,63-36,4.962,8.682Z"/>
  <path id="Forma_24" data-name="Forma 24" class="cls-1" d="M866.717,549.7l-3.434-9.392,93-34,3.434,9.392Z"/>
  <path id="Forma_25" data-name="Forma 25" class="cls-1" d="M839.58,537.006l-9.16-4.012,60-137,9.16,4.012Z"/>
  <path id="Elipse_20" data-name="Elipse 20" class="cls-2" d="M454.547,28.194a32.877,32.877,0,1,1-32.766,32.877A32.821,32.821,0,0,1,454.547,28.194Z"/>
  <circle id="Elipse_21" data-name="Elipse 21" class="cls-3" cx="562.313" cy="131.469" r="46.875"/>
  <circle id="Elipse_22" data-name="Elipse 22" class="cls-4" cx="679.454" cy="79.844" r="51.516"/>
  <circle id="Elipse_23" data-name="Elipse 23" class="cls-5" cx="801.282" cy="183.125" r="60.938"/>
  <circle id="Elipse_4" data-name="Elipse 4" class="cls-6" cx="98.391" cy="596.375" r="60.891"/>
  <circle id="Elipse_5" data-name="Elipse 5" class="cls-7" cx="201.516" cy="709.063" r="60.891"/>
  <circle id="Elipse_6" data-name="Elipse 6" class="cls-8" cx="145.266" cy="859.313" r="32.766"/>
  <circle id="Elipse_7" data-name="Elipse 7" class="cls-9" cx="243.656" cy="920.375" r="37.5"/>
  <circle id="Elipse_8" data-name="Elipse 8" class="cls-10" cx="402.985" cy="760.719" r="112.453"/>
  <circle id="Elipse_9" data-name="Elipse 9" class="cls-11" cx="402.984" cy="986.122" r="84.328"/>
  <path id="Elipse_10" data-name="Elipse 10" class="cls-12" d="M646.641,807.69c72.461,0,131.2,58.857,131.2,131.461S719.1,1070.61,646.641,1070.61s-131.2-58.85-131.2-131.459S574.179,807.69,646.641,807.69Z"/>
  <circle id="Elipse_11" data-name="Elipse 11" class="cls-13" cx="852.844" cy="882.813" r="37.5"/>
  <path id="Elipse_12" data-name="Elipse 12" class="cls-14" d="M937.219,854.617a28.194,28.194,0,1,1-28.125,28.193A28.159,28.159,0,0,1,937.219,854.617Z"/>
  <path id="Elipse_13" data-name="Elipse 13" class="cls-15" d="M932.484,638.621a98.631,98.631,0,1,1-98.39,98.631A98.516,98.516,0,0,1,932.484,638.621Z"/>
  <circle id="Elipse_14" data-name="Elipse 14" class="cls-16" cx="660.704" cy="643.312" r="107.766"/>
  <path id="Elipse_15" data-name="Elipse 15" class="cls-17" d="M838.781,525.94a42.244,42.244,0,1,1-42.187,42.243A42.215,42.215,0,0,1,838.781,525.94Z"/>
  <path id="Elipse_16" data-name="Elipse 16" class="cls-18" d="M463.922,441.452a61.024,61.024,0,1,1-60.891,61.024A60.957,60.957,0,0,1,463.922,441.452Z"/>
  <circle id="Elipse_17" data-name="Elipse 17" class="cls-19" cx="627.891" cy="356.875" r="112.453"/>
  <path id="Elipse_18" data-name="Elipse 18" class="cls-20" d="M918.422,244.19a84.534,84.534,0,1,1-84.328,84.534A84.431,84.431,0,0,1,918.422,244.19Z"/>
  <circle id="Elipse_19" data-name="Elipse 19" class="cls-21" cx="1007.487" cy="502.469" r="60.893"/>
  <circle id="Elipse_24" data-name="Elipse 24" class="cls-22" cx="328.5" cy="235.281" r="142.5"/>
  <path id="Elipse_2" data-name="Elipse 2" class="cls-23" d="M140.578,319.31a56.341,56.341,0,1,1-56.2,56.341A56.272,56.272,0,0,1,140.578,319.31Z"/>
  <path id="Elipse_3" data-name="Elipse 3" class="cls-24" d="M262.406,431.992a93.948,93.948,0,1,1-93.75,93.948A93.849,93.849,0,0,1,262.406,431.992Z"/>
</svg>
